<svg xmlns="http://www.w3.org/2000/svg" viewBox="0 0 1156.32 544.1" fill="#ffffff">
    <path d="M1156.32 322.55q0 25-10 45a95.59 95.59 0 01-27.75 33.58q-17.77 13.61-42.75 21.1c-16.66 5-64.9 5.69-84.88 5.31-116-2.17-149.89-81.37-149.89-138.79 0-80.49.5-288.72.5-288.72h81.05l-.76 285.3c4.92 70 80.26 69.45 104.58 69.45q13.88 0 22.76-6.11t8.88-15.54a25.88 25.88 0 00-1.39-9.16 15 15 0 00-5.83-6.67q-4.42-3.06-13-5.55t-22.48-5.27q-46.64-9.43-65.23-28t-18.6-51.35q0-23.87 8.88-43a89 89 0 0125.54-32.48q16.67-13.32 40.25-20.54t52.46-7.22a238.22 238.22 0 0191.6 18.32l-33.87 65.51Q1088.6 193.2 1062 193.2q-13.87 0-22.49 5.55t-8.6 15a19.46 19.46 0 001.39 8c.92 2 3 4 6.1 5.83s7.77 3.52 13.88 5 14.16 3.33 24.15 5.55q41.63 8.34 62.18 29.7c13.64 14.29 17.72 32.51 17.71 54.72zm-851-44.92c0 84.18-68.49 152.66-152.67 152.66a151.75 151.75 0 01-80.5-23V544.1H0V263.75h.64c7-77.7 72.53-138.79 152-138.79 84.21.04 152.7 68.49 152.7 152.67zm-72.17 0a80.59 80.59 0 00-80.5-80.5 80.5 80.5 0 00-80.5 80.38v.24a80.5 80.5 0 00161-.12zM830 108.65v86c-48.64 0-81.12 5.86-96.55 17.43-7.57 5.68-15.42 15.25-16.57 46.53v55c.06 81.65-61.76 116.58-150.63 115.93-1.9 0-84.25.06-86.06.06q-36.06 0-66.06-10.83t-51.35-30.81a137.31 137.31 0 01-33-47.74q-11.65-27.75-11.66-62.18 0-35.52 11.1-64.12t31.64-48.58q20.54-20 49.69-30.81c19.44-7.22 35.81-10.82 60.24-10.82 24 0 40.15 3.6 59.4 10.82S565.65 152.31 579 166s23.5 30.44 30.54 50.24 10.55 42.11 10.55 66.9v10.54H419.65q0 60.9 53.67 64.7c2.39.17 88.13.29 90.67.26 38.35-.51 68.89-8.84 67.5-55.94v-46.25c4.4-130.24 102.79-147.8 198.51-147.8zM422.42 235.39h103.82q-5-21.09-20.54-33.86c-10.37-8.51-17.4-12.77-32.2-12.77-15.55 0-22.68 4.08-32.48 12.21s-16.02 19.62-18.6 34.42z"/>
</svg>
