<svg xmlns="http://www.w3.org/2000/svg" width="49" height="51" viewBox="0 0 49 51"><g><g opacity=".6"><path fill="#fff" d="M15.233 42.622h-5.12a7.473 7.473 0 0 1-7.457-7.456V10.113a7.473 7.473 0 0 1 7.457-7.456h25.07a7.473 7.473 0 0 1 7.455 7.456v13.802h.381c.438.082.866.21 1.276.381V10.113A9.13 9.13 0 0 0 35.182 1h-25.07A9.13 9.13 0 0 0 1 10.113v25.053a9.113 9.113 0 0 0 9.113 9.113h6.28l-.365-.381a9.511 9.511 0 0 1-.795-1.276z"/><path fill="none" stroke="#fff" stroke-miterlimit="20" stroke-width=".5" d="M15.233 42.622v0h-5.12a7.473 7.473 0 0 1-7.457-7.456V10.113a7.473 7.473 0 0 1 7.457-7.456h25.07a7.473 7.473 0 0 1 7.455 7.456v13.802h.381c.438.082.866.21 1.276.381V10.113A9.13 9.13 0 0 0 35.182 1h-25.07A9.13 9.13 0 0 0 1 10.113v25.053a9.113 9.113 0 0 0 9.113 9.113h6.28v0l-.365-.381a9.511 9.511 0 0 1-.795-1.276z"/></g><g opacity=".6"><path fill="#fff" d="M46.73 32.1l-2.468 16.056h-20.43l-4.192-5.252a9.113 9.113 0 0 1-2.038-5.634v-4.855a2.485 2.485 0 0 1 2.485-2.485h2.486v4.97h1.657V15.847c0-.733.32-1.43.878-1.906a2.42 2.42 0 0 1 2.038-.546 2.585 2.585 0 0 1 2.055 2.617v8.799l14.183 2.518A4.11 4.11 0 0 1 46.73 32.1zm-3.048-6.346l-12.825-2.32v-7.423a4.258 4.258 0 0 0-3.446-4.258 4.209 4.209 0 0 0-3.314.928 4.142 4.142 0 0 0-1.524 3.165v12.427h-2.486a4.142 4.142 0 0 0-4.142 4.142v4.855c.037 2.416.883 4.75 2.403 6.628l4.689 5.882H45.77L48.37 32.3a5.766 5.766 0 0 0-4.689-6.546z"/><path fill="none" stroke="#fff" stroke-miterlimit="20" stroke-width=".5" d="M46.73 32.1l-2.468 16.056h-20.43l-4.192-5.252a9.113 9.113 0 0 1-2.038-5.634v-4.855a2.485 2.485 0 0 1 2.485-2.485h2.486v4.97h1.657V15.847c0-.733.32-1.43.878-1.906a2.42 2.42 0 0 1 2.038-.546 2.585 2.585 0 0 1 2.055 2.617v8.799l14.183 2.518A4.11 4.11 0 0 1 46.73 32.1zm-3.048-6.346l-12.825-2.32v-7.423a4.258 4.258 0 0 0-3.446-4.258 4.209 4.209 0 0 0-3.314.928 4.142 4.142 0 0 0-1.524 3.165v12.427h-2.486a4.142 4.142 0 0 0-4.142 4.142v4.855c.037 2.416.883 4.75 2.403 6.628l4.689 5.882H45.77L48.37 32.3a5.766 5.766 0 0 0-4.689-6.546z"/></g></g></svg>