<svg xmlns="http://www.w3.org/2000/svg" width="131" height="131" viewBox="0 0 2622 2622">
  <defs>
    <linearGradient id="a" x1=".158" y1=".305" x2=".944" y2=".916" gradientUnits="objectBoundingBox">
      <stop offset="0" stop-color="#231f20"/>
      <stop offset=".966" stop-color="#333"/>
      <stop offset="1" stop-color="#767676"/>
    </linearGradient>
    <linearGradient id="c" x1="-.16" y1=".16" x2=".807" y2=".801" gradientUnits="objectBoundingBox">
      <stop offset="0" stop-color="#191616"/>
      <stop offset="1" stop-color="#333"/>
    </linearGradient>
    <clipPath id="b">
      <rect data-name="Rectangle 935" width="2622" height="2622" rx="73" transform="translate(.001)" fill="url(#a)"/>
    </clipPath>
  </defs>
  <g data-name="Group 1435">
    <g data-name="Group 1434">
      <path data-name="Rectangle 155" fill="#333" d="M0 0h2622v2622H0z"/>
      <g data-name="Mask Group 6" clip-path="url(#b)">
        <path data-name="Path 741" d="M1148.009 4499.226l-584.643-404.76 8.411-230.846 116.455-115.5 13.045-133.11v-58.832l-57.806-61.632L659.7 3340.1l147.958-103.571h71.286l-243.075-140.836s543.207 17.565 488.671-274.427-346.386-129.166-343.711-260.949 20.7-251.18 182.578-270.8 325.92-11.006 325.92-11.006l132 85.377 26.105-104.492h91.043l921.775 607.136-29.59 1632.694z" transform="translate(159.46 -1874.763)" fill="url(#c)"/>
      </g>
      <g data-name="Group 1427">
        <g data-name="Group 1426">
          <g data-name="Rectangle 153">
            <path data-name="Path 729" d="M1334.642 1342.924l-182.6 7.432-21.088-4.954q-65.828-16.17-115.486-16.17-115.536 0-185.045 72.037-69.543 72.055-69.555 176.341 0 104.34 85.693 150.3l-18.616 17.373a249.952 249.952 0 00-35.415 47.2 117.467 117.467 0 00-18.009 61.458 73.725 73.725 0 0022.364 54.028q-69.543 34.8-113.009 75.786t-43.484 101.828q0 166.4 259.558 166.4 129.194.05 211.121-67.048 82-67.079 81.979-171.381 0-73.258-47.2-107.419t-125.427-44.725q-78.229-10.545-101.225-18.616-22.946-8.084-22.965-29.19 0-21.138 27.313-57.106l47.2 6.192q116.741 0 188.761-70.8 72.053-70.747 72.037-165.162 0-44.738-11.181-73.274h88.17zm-384.383 621.582q70.2 10.545 92.523 22.36t22.36 41.582q0 55.885-51.55 83.217t-119.838 27.313q-68.287 0-98.749-23.6-30.378-23.549-30.394-57.106t29.156-63.34a238.791 238.791 0 0163.969-47.2q22.344 6.18 92.523 16.774zm122.315-352.114q-34.746 39.768-91.887 39.768-94.4 0-94.364-83.217a132.734 132.734 0 0134.145-90.046q34.143-39.115 88.774-39.1 98.11 0 98.111 84.421 0 48.455-34.778 88.172z" fill="#333"/>
            <path data-name="Path 730" d="M1020.788 633.542q0 49.659 30.428 72.036 30.428 22.344 126.666 56.5t134.13 73.878q37.86 39.767 37.894 120.474 0 139.085-83.217 217.95t-224.778 78.869a950.052 950.052 0 01-213.6-24.837l-36.017-7.466 16.135-74.514q144.056 22.394 239.675 22.36 95.652 0 149.662-52.756 54.027-52.822 54.027-150.9 0-50.914-27.313-75.146-27.313-24.2-120.474-56.5T967.4 761.449q-43.484-39.717-43.484-120.44 0-126.682 81.342-199.339t219.22-72.641a761.629 761.629 0 01198.7 26.077l32.269 8.7-16.131 70.763q-131.654-22.337-222.3-22.321-90.682-.05-143.437 46.563-52.774 46.544-52.791 134.731z" fill="#333"/>
            <path data-name="Path 731" d="M1601.632 1330.508q-91.886 0-165.161 63.333-73.314 63.317-110.533 159.571a557.071 557.071 0 00-37.256 203.054q0 221.08 229.732 221.063a256.451 256.451 0 00172.024-63.333 374.1 374.1 0 00108.657-158.334 583.451 583.451 0 0034.776-201.814q0-223.54-232.239-223.54zm47.8 438.372q-50.26 94.4-131.018 94.4-95.6 0-95.6-105.578 0-121.662 49.675-217.315 49.659-95.6 129.145-95.629 48.453 0 73.274 28.587 24.8 28.52 24.838 79.468.007 121.661-50.311 216.076z" fill="#333"/>
            <path data-name="Path 732" d="M1857.843 1156.379l-18.645 84.455h-433.424l198.708-859.385h94.4l-178.861 774.93z" fill="#333"/>
            <path data-name="Path 733" d="M1334.642 1342.924l-182.6 7.432-21.088-4.954q-65.828-16.17-115.486-16.17-115.536 0-185.045 72.037-69.543 72.055-69.555 176.341 0 104.34 85.693 150.3l-18.616 17.373a249.952 249.952 0 00-35.415 47.2 117.467 117.467 0 00-18.009 61.458 73.725 73.725 0 0022.364 54.028q-69.543 34.8-113.009 75.786t-43.484 101.828q0 166.4 259.558 166.4 129.194.05 211.121-67.048 82-67.079 81.979-171.381 0-73.258-47.2-107.419t-125.427-44.725q-78.229-10.545-101.225-18.616-22.946-8.084-22.965-29.19 0-21.138 27.313-57.106l47.2 6.192q116.741 0 188.761-70.8 72.053-70.747 72.037-165.162 0-44.738-11.181-73.274h88.17zm-384.383 621.582q70.2 10.545 92.523 22.36t22.36 41.582q0 55.885-51.55 83.217t-119.838 27.313q-68.287 0-98.749-23.6-30.378-23.549-30.394-57.106t29.156-63.34a238.791 238.791 0 0163.969-47.2q22.344 6.18 92.523 16.774zm122.315-352.114q-34.746 39.768-91.887 39.768-94.4 0-94.364-83.217a132.734 132.734 0 0134.145-90.046q34.143-39.115 88.774-39.1 98.11 0 98.111 84.421 0 48.455-34.778 88.172z" fill="none"/>
            <path data-name="Path 734" d="M1020.788 633.542q0 49.659 30.428 72.036 30.428 22.344 126.666 56.5t134.13 73.878q37.86 39.767 37.894 120.474 0 139.085-83.217 217.95t-224.778 78.869a950.052 950.052 0 01-213.6-24.837l-36.017-7.466 16.135-74.514q144.056 22.394 239.675 22.36 95.652 0 149.662-52.756 54.027-52.822 54.027-150.9 0-50.914-27.313-75.146-27.313-24.2-120.474-56.5T967.4 761.449q-43.484-39.717-43.484-120.44 0-126.682 81.342-199.339t219.22-72.641a761.629 761.629 0 01198.7 26.077l32.269 8.7-16.131 70.763q-131.654-22.337-222.3-22.321-90.682-.05-143.437 46.563-52.774 46.544-52.791 134.731z" fill="none"/>
            <path data-name="Path 735" d="M1601.632 1330.508q-91.886 0-165.161 63.333-73.314 63.317-110.533 159.571a557.071 557.071 0 00-37.256 203.054q0 221.08 229.732 221.063a256.451 256.451 0 00172.024-63.333 374.1 374.1 0 00108.657-158.334 583.451 583.451 0 0034.776-201.814q0-223.54-232.239-223.54zm47.8 438.372q-50.26 94.4-131.018 94.4-95.6 0-95.6-105.578 0-121.662 49.675-217.315 49.659-95.6 129.145-95.629 48.453 0 73.274 28.587 24.8 28.52 24.838 79.468.007 121.661-50.311 216.076z" fill="none"/>
            <path data-name="Path 736" d="M1857.843 1156.379l-18.645 84.455h-433.424l198.708-859.385h94.4l-178.861 774.93z" fill="none"/>
          </g>
        </g>
      </g>
      <g data-name="Group 1433">
        <path data-name="Path 119" d="M1520.023 1156.371l178.852-774.921h-94.4l-198.699 859.381h433.419l18.645-84.455zm-446.441-657.562q52.772-46.6 143.437-46.563 90.682-.05 222.3 22.328l16.134-70.765-32.269-8.7a761.622 761.622 0 00-198.7-26.077q-137.881 0-219.223 72.638t-81.346 199.338q0 80.69 43.484 120.44t136.608 72.037q93.142 32.285 120.474 56.5 27.314 24.256 27.314 75.15 0 98.111-54.027 150.9t-149.664 52.759q-95.6 0-239.675-22.36l-16.134 74.513 36.018 7.464a950.037 950.037 0 00213.6 24.838q141.545 0 224.779-78.865 83.2-78.831 83.218-217.95 0-80.69-37.894-120.474-37.864-39.716-134.132-73.877t-126.666-56.5q-30.428-22.344-30.428-72.037-.001-88.175 52.792-134.737z" fill="#fff"/>
        <path data-name="Path 118" d="M1334.645 1342.925l-182.6 7.432-21.088-4.954q-65.828-16.17-115.486-16.17-115.536 0-185.045 72.037-69.543 72.055-69.555 176.341 0 104.34 85.693 150.3l-18.616 17.373a249.952 249.952 0 00-35.415 47.2 117.467 117.467 0 00-18.009 61.458 73.725 73.725 0 0022.364 54.028q-69.543 34.8-113.009 75.786t-43.484 101.828q0 166.4 259.558 166.4 129.194.05 211.121-67.048 82-67.079 81.979-171.381 0-73.258-47.2-107.419t-125.427-44.725q-78.229-10.545-101.225-18.616-22.946-8.084-22.965-29.19 0-21.138 27.313-57.106l47.2 6.192q116.741 0 188.761-70.8 72.053-70.747 72.037-165.162 0-44.738-11.181-73.274h88.17zm-384.383 621.582q70.2 10.545 92.523 22.36t22.36 41.582q0 55.885-51.55 83.217t-119.838 27.313q-68.287 0-98.749-23.6-30.378-23.549-30.394-57.106t29.156-63.34a238.791 238.791 0 0163.969-47.2q22.344 6.18 92.523 16.774zm122.315-352.114q-34.746 39.768-91.887 39.768-94.4 0-94.364-83.217a132.734 132.734 0 0134.145-90.046q34.143-39.115 88.774-39.1 98.11 0 98.111 84.421 0 48.455-34.778 88.172zm529.054-281.885q-91.886 0-165.161 63.333-73.309 63.316-110.533 159.571a557.067 557.067 0 00-37.254 203.053q0 221.081 229.732 221.063a256.448 256.448 0 00172.024-63.333 374.1 374.1 0 00108.657-158.333 583.437 583.437 0 0034.775-201.814q.006-223.54-232.24-223.54zm47.8 438.373q-50.262 94.4-131.017 94.4-95.6 0-95.6-105.584 0-121.661 49.675-217.314 49.659-95.6 129.143-95.636 48.453 0 73.274 28.587 24.8 28.52 24.837 79.468 0 121.673-50.307 216.088z" fill="#f5881f"/>
      </g>
    </g>
  </g>
</svg>
