<svg xmlns="http://www.w3.org/2000/svg" width="111" height="111" viewBox="0 0 363.691 562.514">
  <g id="Group_1439" data-name="Group 1439" transform="translate(-11335.525 -6228.558)">
    <g id="Group_1438" data-name="Group 1438" transform="translate(-925)">
      <path id="Path_121" data-name="Path 121" d="M46.189-228.907q-39.326-6.678-66.409-6.678T-63.07-221.673q-15.767,13.913-15.768,40.254,0,14.84,9.089,21.518t37.842,16.88q28.753,10.2,40.068,22.075T19.477-84.959q0,41.552-24.857,65.111T-72.531,3.71a284.136,284.136,0,0,1-63.812-7.42L-147.1-5.936l4.823-22.26q43.036,6.678,71.6,6.678T-25.97-37.285Q-9.831-53.053-9.831-82.362q0-15.211-8.162-22.446T-53.98-121.688q-27.825-9.646-40.81-21.518t-12.985-35.987q0-37.842,24.3-59.545t65.481-21.7a227.33,227.33,0,0,1,59.36,7.791l9.646,2.6ZM165.651,0H36.172l59.36-256.732h28.2L70.3-25.228H171.216Z" transform="translate(12453 6489)" fill="#fff"/>
      <path id="Path_120" data-name="Path 120" d="M-5.38,14.84q0,31.164-24.486,51.2t-63.07,20.034q-77.539,0-77.539-49.714,0-18.179,12.985-30.422T-123.729-16.7a21.987,21.987,0,0,1-6.678-16.138A35.066,35.066,0,0,1-125.027-51.2a74.431,74.431,0,0,1,10.574-14.1l5.565-5.194q-25.6-13.727-25.6-44.891t20.776-52.682q20.776-21.518,55.279-21.518,14.84,0,34.5,4.823l6.307,1.484L36.915-185.5l-7.791,33.019H2.783q3.339,8.533,3.339,21.889,0,28.2-21.518,49.343T-71.788-60.1l-14.1-1.855Q-94.049-51.2-94.049-44.891t6.863,8.719q6.864,2.411,30.237,5.565t37.471,13.356Q-5.38-7.049-5.38,14.84ZM-105.549-4.823a71.367,71.367,0,0,0-19.107,14.1q-8.718,8.9-8.718,18.921t9.089,17.066q9.09,7.049,29.494,7.049t35.8-8.162q15.4-8.162,15.4-24.857,0-8.9-6.678-12.428T-77.91.186Q-98.871-2.968-105.549-4.823Zm36.729-88.3q17.066,0,27.454-11.872t10.388-26.341q0-25.228-29.309-25.228-16.324,0-26.527,11.686a39.7,39.7,0,0,0-10.2,26.9Q-97.017-93.121-68.821-93.121Zm185.5-96.089q69.377,0,69.377,66.78a174.015,174.015,0,0,1-10.388,60.288,111.655,111.655,0,0,1-32.462,47.3A76.543,76.543,0,0,1,91.823,4.081q-68.635,0-68.635-66.038a166.554,166.554,0,0,1,11.13-60.659q11.13-28.752,33.019-47.674T116.68-189.21ZM91.823-30.051q24.115,0,39.14-28.2T145.988-122.8q0-15.211-7.42-23.744t-21.889-8.533q-23.744,0-38.584,28.567T63.256-61.586Q63.256-30.051,91.823-30.051Z" transform="translate(12431 6705)" fill="#f5881f"/>
    </g>
  </g>
</svg>
