<svg xmlns="http://www.w3.org/2000/svg" width="46.83" height="65.58" viewBox="0 0 46.83 65.58">
  <g id="Group_1962" data-name="Group 1962" transform="translate(-1220.59 -996.93)">
    <g id="Group_1956" data-name="Group 1956">
      <path id="Path_190" data-name="Path 190" d="M1228.184,1009.251a12.32,12.32,0,1,1,24.64,0v3.079a12.32,12.32,0,1,1-24.64,0Z" fill="#fff"/>
      <path id="Path_788" data-name="Path 788" d="M1260.31,1040.02v.93a7.486,7.486,0,0,0-1.5-.15h-.05a8.464,8.464,0,0,0-8.31,8.1v2.56a1.9,1.9,0,0,1-.44,1.3h-25.34a4.1,4.1,0,0,1-4.08-4.08v-8.66c0-.63,0-.85.07-2.03a15.354,15.354,0,0,1,13.55-8.24h12.32a15.278,15.278,0,0,1,13.56,8.24A6.917,6.917,0,0,1,1260.31,1040.02Z" fill="#fff"/>
    </g>
    <g id="bell">
      <g id="Path_786" data-name="Path 786">
        <path id="Path_789" data-name="Path 789" d="M1261.16,1060.74a2.465,2.465,0,0,1-4.73,0c.75.05,1.54.08,2.36.08S1260.41,1060.79,1261.16,1060.74Z" fill="#fff"/>
      </g>
      <g id="Path_787" data-name="Path 787">
        <path id="Path_790" data-name="Path 790" d="M1267.42,1056.28c0,.97-1.56,1.8-4.23,2.23a28.14,28.14,0,0,1-4.4.31,28.527,28.527,0,0,1-4.45-.32c-2.63-.43-4.17-1.26-4.17-2.22,0-1.27,1.53-1.83,2.08-3.52a3.9,3.9,0,0,0,.2-1.3v-2.48a6.452,6.452,0,0,1,6.34-6.18,5.872,5.872,0,0,1,1.52.21,6.38,6.38,0,0,1,4.83,5.91v2.54C1265.14,1054.24,1267.42,1054.73,1267.42,1056.28Z" fill="#fff"/>
      </g>
    </g>
  </g>
</svg>
