<svg xmlns="http://www.w3.org/2000/svg" width="77.801" height="77.72" viewBox="0 0 77.801 77.72" fill="#ffffff">
  <g id="check" transform="translate(-11.057 -11.14)">
    <g id="Group">
      <path id="Path" d="M50,88.86A38.88,38.88,0,0,0,85.6,34.4a4,4,0,1,0-7.33,3.21A30.85,30.85,0,1,1,64.58,22.8a4,4,0,1,0,3.79-7A38.86,38.86,0,1,0,50,88.86Z"/>
      <path id="Path-2" data-name="Path" d="M33.73,38.21A4,4,0,1,0,28.2,44L45.8,60.83a4,4,0,0,0,2.76,1.11h.15a4,4,0,0,0,2.82-1.32L85.36,23a4,4,0,1,0-5.95-5.35L48.35,52.19Z"/>
    </g>
  </g>
</svg>
