<svg xmlns="http://www.w3.org/2000/svg" width="49" height="65" viewBox="0 0 49 65"><g><g><path d="M23.861 52.27c-1.465.07-1.36 2.268.105 2.198h18.388c1.465 0 1.465-2.198 0-2.198zm-11.694-3.297a2.72 2.72 0 0 1 2.75 2.746c0 1.54-1.21 2.749-2.75 2.749a2.72 2.72 0 0 1-2.746-2.749 2.718 2.718 0 0 1 2.746-2.746zm8.032-1.094c-1.43.106-1.32 2.238.114 2.196h22.026c1.497.033 1.497-2.23 0-2.196zm-8.032-1.102c-2.717 0-4.933 2.225-4.933 4.942 0 2.718 2.216 4.945 4.933 4.945 2.718 0 4.945-2.227 4.945-4.945 0-2.717-2.227-4.942-4.945-4.942zm11.8-7.682c-1.433.029-1.433 2.164 0 2.195h18.387c1.433-.029 1.433-2.164 0-2.195zm-3.654-4.393c-1.465 0-1.465 2.197 0 2.197h22.026c1.465 0 1.465-2.197 0-2.197zm-3.98-1.872l-4.708 4.708-2.52-2.51c-1.029-1.129-2.677.508-1.556 1.545l3.298 3.3c.428.426 1.12.426 1.548 0l5.495-5.487c1.147-1.146-.559-2.554-1.557-1.556zm7.633-6.913c-1.465 0-1.465 2.198 0 2.198h18.388c1.465 0 1.465-2.198 0-2.198zm-3.763-4.385l-.004.003c-1.43.105-1.32 2.238.114 2.195h22.026c1.432-.033 1.432-2.163 0-2.195-7.376-.003-14.767.004-22.135-.003zm-3.115-2.21a1.098 1.098 0 0 0-.755.332l-4.708 4.715-2.52-2.52c-1.037-1.037-2.594.52-1.556 1.557l3.298 3.29c.428.425 1.12.425 1.548 0l5.495-5.487c.724-.7.204-1.923-.802-1.887zm.025-5.478c-1.431.033-1.431 2.163 0 2.195h15.365c1.497.033 1.497-2.229 0-2.195zM4.3 10.553h40.989c.83 0 1.46.636 1.46 1.466v48.663c0 .83-.63 1.468-1.46 1.468H4.299c-.83 0-1.457-.638-1.457-1.468V12.019c0-.83.628-1.466 1.458-1.466zM20.402 2.87h8.784c1.528 0 2.198.855 2.198 2.198v3.289H18.207V4.744c0-1.325 1.336-1.86 2.195-1.874zm0-2.195c-2.868 0-4.391 1.932-4.391 4.545v3.137H4.3c-2.008 0-3.654 1.654-3.654 3.662v48.663c0 2.008 1.646 3.664 3.654 3.664h40.989c2.008 0 3.655-1.656 3.655-3.664V12.019c0-2.008-1.647-3.662-3.655-3.662h-11.71v-3.29c0-2.38-2.258-4.392-4.393-4.392z"/></g></g></svg>