<svg xmlns="http://www.w3.org/2000/svg" viewBox="0 0 24.84 30"><title>icon-file</title><path d="M17.36,0V2.37q0,1.62,0,3.24a1.66,1.66,0,0,0,1.86,1.87h5.62V28.24A1.63,1.63,0,0,1,23.55,30a2.12,2.12,0,0,1-.44,0H1.74A1.64,1.64,0,0,1,0,28.27V2.16a4.06,4.06,0,0,1,.08-1A1.58,1.58,0,0,1,1.6,0H17.13ZM12.43,17.35H3.61a.7.7,0,0,0-.78.78c0,.14,0,.29,0,.44-.06.63.38.88.87.88H19.92c.46,0,.92,0,1.38,0a.69.69,0,0,0,.72-.76v-.53a.72.72,0,0,0-.82-.8Zm0-4H3.64a.72.72,0,0,0-.81.81,2.14,2.14,0,0,0,0,.62.75.75,0,0,0,.25.49,1.23,1.23,0,0,0,.66.18H21.2a.73.73,0,0,0,.82-.82c0-.13,0-.27,0-.41,0-.63-.25-.88-.89-.88Zm-.06-1.89h8.82a1.13,1.13,0,0,0,.57-.18,1.44,1.44,0,0,0,0-1.74A1.42,1.42,0,0,0,21,9.39H3.67a1.07,1.07,0,0,0-.62.2,1.49,1.49,0,0,0,0,1.67,1.14,1.14,0,0,0,.65.21Zm-2.26,9.87H3.6a.69.69,0,0,0-.77.78,2.35,2.35,0,0,0,0,.65.92.92,0,0,0,.25.49,1.13,1.13,0,0,0,.61.16H16.6a.7.7,0,0,0,.77-.76c0-.16,0-.32,0-.47,0-.59-.25-.85-.83-.85ZM8.33,5.4H3.57a.69.69,0,0,0-.74.75c0,.17,0,.33,0,.5,0,.59.24.83.84.84H13c.59,0,.85-.26.85-.86V6.23c0-.56-.27-.83-.83-.83ZM18.21.08c0,1.61,0,3.22,0,4.82a1.53,1.53,0,0,0,1.13,1.61,3.16,3.16,0,0,0,.81.11h4.66l-.07,0L18.25,0Z" fill="#ffffff"/></svg>