<svg xmlns="http://www.w3.org/2000/svg" width="45.342" height="50.001" viewBox="0 0 45.342 50.001">
  <g id="noun_new_document_383042" data-name="noun_new document_383042" transform="translate(-13.2 -10.1)">
    <path id="Path_230" data-name="Path 230" d="M48.728,34.371a12.326,12.326,0,0,1-12.3-12.3A12.057,12.057,0,0,1,38.169,15.8H18.79a5.567,5.567,0,0,0-5.59,5.59V56.67a5.567,5.567,0,0,0,5.59,5.59H48.666a5.567,5.567,0,0,0,5.59-5.59v-23.6A12.7,12.7,0,0,1,48.728,34.371ZM20.157,27.788H31.709a1.242,1.242,0,1,1,0,2.484H20.157a1.242,1.242,0,1,1,0-2.484Zm22.174,24.1H20.157a1.242,1.242,0,1,1,0-2.484H42.268a1.246,1.246,0,0,1,1.242,1.242A1.194,1.194,0,0,1,42.33,51.887Zm5.4-10.807H20.157a1.242,1.242,0,1,1,0-2.484H47.672a1.246,1.246,0,0,1,1.242,1.242A1.194,1.194,0,0,1,47.734,41.08Z" transform="translate(0 -2.16)" fill="#fff"/>
    <g id="Group_67" data-name="Group 67" transform="translate(38.914 10.1)">
      <path id="Path_231" data-name="Path 231" d="M64.414,10.1a9.814,9.814,0,1,0,9.814,9.814A9.835,9.835,0,0,0,64.414,10.1ZM68.2,21.094H65.78v2.422a1.242,1.242,0,1,1-2.484,0V21.094H60.873a1.242,1.242,0,0,1,0-2.484H63.3V16.187a1.242,1.242,0,1,1,2.484,0v2.422H68.2a1.242,1.242,0,1,1,0,2.484Z" transform="translate(-54.6 -10.1)" fill="#fff"/>
    </g>
  </g>
</svg>
