<svg xmlns="http://www.w3.org/2000/svg" width="45.342" height="50" viewBox="0 0 45.342 50">
  <g id="Group_1956" data-name="Group 1956" transform="translate(-377.416 -374.988)">
    <path id="Path_786" data-name="Path 786" d="M422.564,383.153l-9.17-8.023a.573.573,0,0,0-.95.431v4.018c-4.925.108-10.315,1.761-10.315,12.028a.573.573,0,0,0,1.026.351c2.005-2.586,3.76-4.3,9.289-4.363v4.012a.573.573,0,0,0,.95.431l9.17-8.023a.573.573,0,0,0,.05-.809.6.6,0,0,0-.05-.051Z" fill="#fff"/>
    <g id="Group_1955" data-name="Group 1955">
      <path id="Path_787" data-name="Path 787" d="M414.71,393.544a2.573,2.573,0,0,1-4.266-1.937v-1.9c-3.139.366-4.237,1.573-5.709,3.473a2.557,2.557,0,0,1-2.036,1,2.575,2.575,0,0,1-2.57-2.573c0-6.9,2.364-11.273,7.03-13.079H383.006a5.567,5.567,0,0,0-5.59,5.544V419.4a5.566,5.566,0,0,0,5.543,5.59h29.923a5.567,5.567,0,0,0,5.59-5.544V399.633h0v-9.38Zm-30.339-3.028h11.554a1.242,1.242,0,0,1,0,2.484H384.373a1.242,1.242,0,0,1,0-2.484Zm22.209,24.1H384.373a1.242,1.242,0,0,1,0-2.484h22.111a1.246,1.246,0,0,1,1.242,1.242A1.194,1.194,0,0,1,406.58,414.614Zm5.4-10.807H384.373a1.242,1.242,0,0,1,0-2.484h27.515a1.246,1.246,0,0,1,1.242,1.242A1.194,1.194,0,0,1,411.984,403.807Z" fill="#fff"/>
    </g>
  </g>
</svg>
