<svg width="20" height="19" xmlns="http://www.w3.org/2000/svg">
 <defs>
  <style>.cls-1{fill:#fff;}</style>
 </defs>
 <g>
  <title>background</title>
  <rect x="0" y="0" width="20" height="19" id="canvas_background" fill="none"/>
 </g>
 <g>
  <title>Layer 1</title>
  <g id="dislike">
   <g id="Group_1528">
    <g id="Group_1527">
     <path id="Path_652" class="cls-1" d="m2.29491,10.715a2,2 0 0 1 -2,-2l0,-6.52a2,2 0 0 1 2,-2l2.44,0a2,2 0 0 1 1.21,0.41l0,10.11l-3.65,0z"/>
    </g>
   </g>
   <g id="Group_1530">
    <g id="Group_1529">
     <path id="Path_653" class="cls-1" d="m19.70491,7.685a1.75,1.75 0 0 1 -0.52,1.27a2,2 0 0 1 0.51,1.54a2.09,2.09 0 0 1 -2.11,1.84l-5,0a11.52,11.52 0 0 1 0.65,3.23a3.3,3.3 0 0 1 -2.42,3.24a2.59,2.59 0 0 1 -1.47,-0.49a0.41,0.41 0 0 1 -0.15,-0.32l0,-2.74l-2.33,-5l-0.1,-0.05l0,-8.73a5.28,5.28 0 0 1 2,-0.47l7.42,0a1.85,1.85 0 0 1 1.83,1.41a1.74,1.74 0 0 1 -0.14,1.21a1.82,1.82 0 0 1 0.81,2.43a1.8,1.8 0 0 1 1.02,1.63z"/>
    </g>
   </g>
  </g>
 </g>
</svg>
