<svg xmlns="http://www.w3.org/2000/svg" viewBox="0 0 100 125">
	<path d="M50.6 49.3c-1.2 0-2.1-1-2.1-2.1V30.9c0-1.2 1-2.1 2.1-2.1 1.2 0 2.1 1 2.1 2.1v16.3c.1 1.2-.9 2.1-2.1 2.1zM50.9 94.9c-1.2 0-2.1-1-2.1-2.1V76.4c0-1.2 1-2.1 2.1-2.1 1.2 0 2.1 1 2.1 2.1v16.3c.1 1.2-.9 2.2-2.1 2.2zM61 53.5c-.5 0-1.1-.2-1.5-.6-.8-.8-.8-2.2 0-3l2.6-2.6c.8-.8 2.2-.8 3 0 .8.8.8 2.2 0 3l-2.6 2.6c-.4.4-.9.6-1.5.6zM40.3 53.7c-.5 0-1.1-.2-1.5-.6L30 44.3c-.8-.8-.8-2.2 0-3 .8-.8 2.2-.8 3 0l8.8 8.8c.8.8.8 2.2 0 3-.4.4-.9.6-1.5.6zM69.1 82.1c-.5 0-1.1-.2-1.5-.6l-7.9-7.9c-.8-.8-.8-2.2 0-3 .8-.8 2.2-.8 3 0l7.9 7.9c.8.8.8 2.2 0 3-.4.4-.9.6-1.5.6zM36.1 64.1h-7.9c-1.2 0-2.1-1-2.1-2.1s1-2.1 2.1-2.1h7.9c1.2 0 2.1 1 2.1 2.1s-.9 2.1-2.1 2.1zM68.4 46.1c-.5 0-1.1-.2-1.5-.6-.8-.8-.8-2.2 0-3l5.9-5.9c.8-.8 2.2-.8 3 0 .8.8.8 2.2 0 3L70 45.4c-.5.5-1 .7-1.6.7zM37.6 76.9c-.5 0-1.1-.2-1.5-.6-.8-.8-.8-2.2 0-3l2.6-2.6c.8-.8 2.2-.8 3 0 .8.8.8 2.2 0 3l-2.6 2.6c-.4.4-1 .6-1.5.6zM26.9 87.6c-.5 0-1.1-.2-1.5-.6-.8-.8-.8-2.2 0-3l5.9-5.9c.8-.8 2.2-.8 3 0 .8.8.8 2.2 0 3L28.4 87c-.4.4-1 .6-1.5.6zM21.1 64.1h-2c-1.2 0-2.1-1-2.1-2.1s1-2.1 2.1-2.1h2c1.2 0 2.1 1 2.1 2.1s-.9 2.1-2.1 2.1zM72.9 64.1H65c-1.2 0-2.1-1-2.1-2.1s1-2.1 2.1-2.1h7.9c1.2 0 2.1 1 2.1 2.1s-.9 2.1-2.1 2.1zM82 64.1h-2c-1.2 0-2.1-1-2.1-2.1s1-2.1 2.1-2.1h2c1.2 0 2.1 1 2.1 2.1s-.9 2.1-2.1 2.1z"/>
</svg>
