<svg id="Layer_1" data-name="Layer 1" xmlns="http://www.w3.org/2000/svg" viewBox="0 0 20 20"><defs><style>.cls-1{fill:#333;}</style></defs><title>Stats-Recommended</title><g id="Icon_feather-info" data-name="Icon feather-info"><path class="cls-1" d="M10,20A10,10,0,1,1,20,10,10,10,0,0,1,10,20ZM10,1.42A8.58,8.58,0,1,0,18.58,10,8.59,8.59,0,0,0,10,1.42Z"/><path class="cls-1" d="M10,14.45a.71.71,0,0,1-.71-.71V10a.71.71,0,1,1,1.42,0v3.79A.71.71,0,0,1,10,14.45Z"/><path class="cls-1" d="M10,7a.76.76,0,0,1-.52-.22.65.65,0,0,1-.22-.52.65.65,0,0,1,.22-.51.71.71,0,1,1,1,1A.69.69,0,0,1,10,7Z"/></g></svg>