<svg xmlns="http://www.w3.org/2000/svg" width="66.254" height="63.048" viewBox="0 0 66.254 63.048">
  <g id="hat-3" transform="translate(-1 -3)">
    <path id="Path_323" data-name="Path 323" d="M66.637,18.061,34.579,3.1a1.07,1.07,0,0,0-.9,0L1.617,18.061a1.068,1.068,0,0,0,0,1.936L33.675,34.958a1.067,1.067,0,0,0,.9,0l11.3-5.275V57.157l-5.144,7.2a1.069,1.069,0,0,0,.87,1.689H52.293a1.069,1.069,0,0,0,.87-1.689l-5.144-7.2V28.686L66.637,20a1.068,1.068,0,0,0,0-1.936Z" fill="#7a7b7a"/>
    <path id="Path_324" data-name="Path 324" d="M43.058,31.5,34.8,35.351a3.215,3.215,0,0,1-2.713,0L11,25.511v17.62c0,5.992,9.857,10.686,22.441,10.686a44.757,44.757,0,0,0,9.618-1.009Z" transform="translate(0.686 1.544)" fill="#7a7b7a"/>
    <path id="Path_325" data-name="Path 325" d="M47,28.5V50.675c3.982-1.919,6.412-4.57,6.412-7.543V25.51Z" transform="translate(3.156 1.544)" fill="#7a7b7a"/>
  </g>
</svg>
