<svg xmlns="http://www.w3.org/2000/svg" width="25" height="23" viewBox="0 0 25 23"><g><g><g><g><path fill="#fff" d="M10.849 9.35c0 .43.05.86.15 1.28-.65.32-1.37.49-2.13.49-2.73 0-4.95-2.21-4.95-4.94V4.94c0-2.73 2.22-4.94 4.95-4.94 2.16 0 3.99 1.38 4.66 3.3-.33.2-.64.45-.93.73-1.13 1.11-1.75 2.57-1.75 4.12z"/></g><g><path fill="#fff" d="M7.989 18.88l-.1.19-.02.22c-.01.2-.01.34-.01.45h-5.35a1.63 1.63 0 0 1-1.63-1.63v-.83c0-.25 0-.33.02-.81a6.181 6.181 0 0 1 5.44-3.3h4.95c.39 0 .77.04 1.14.11.05.06.11.12.17.18.87.85 1.95 1.4 3.11 1.6.03.02.05.05.07.08h-1.54c-2.62 0-5.01 1.43-6.25 3.74z"/></g></g><g><g><g><path fill="#fff" d="M21.599 8.15v1.2c0 2.65-2.24 4.8-4.87 4.8-2.39 0-4.46-1.77-4.82-4.09-.04-.23-.06-.47-.06-.71v-1.2c0-1.55.76-2.93 1.92-3.8a4.893 4.893 0 0 1 2.96-1.01c2.63 0 4.87 2.15 4.87 4.81z"/></g></g><g><g><path fill="#fff" d="M24.569 20.14v.81c0 .87-.73 1.59-1.62 1.59h-12.49c-.89 0-1.61-.72-1.61-1.59v-1.21c0-.1.01-.22.02-.39a6.084 6.084 0 0 1 5.37-3.21h4.87c2.34 0 4.31 1.28 5.37 3.21.1.47.09.54.09.79z"/></g></g></g></g></g></svg>