<svg xmlns="http://www.w3.org/2000/svg" width="141" height="141">
    <path fill="transparent" d="M0 141V0h141v141z"/>
    <path fill="#fff" d="M118.742 120.825l.156 18.94a.644.644 0 01-.644.645H22.057a.644.644 0 01-.633-.636l.29-18.818s0-10.53 15.822-15.413h.041c.513-.126 11.371-2.508 15.855-3.261.273-.105.502-.298.652-.549a7.745 7.745 0 00.73-2.521.647.647 0 00-.217-.573c-1.39-1.217-7.773-8.326-9.938-22.67-2.255-14.995 5.386-30.945 25.488-32.033 20.133.863 28.311 17.504 25.763 32.167-2.431 13.936-8.584 21.306-9.902 22.558-.146.137-.521.428-.497.628.114.85.402 1.666.847 2.398.09.186.576.578 1.294.71 4.769.877 13.772 2.836 15.087 3.127h.041c15.82 4.895 15.962 15.301 15.962 15.301z"/>
</svg>
