<svg id="Layer_1" data-name="Layer 1" xmlns="http://www.w3.org/2000/svg" viewBox="0 0 20 20"><defs><style>.cls-1{fill:#333;}</style></defs><title>Stats-Completed</title><g id="Icon_feather-check-circle" data-name="Icon feather-check-circle"><path class="cls-1" d="M9.93,20.12A10.06,10.06,0,1,1,14,.87a.71.71,0,0,1,.36.94.73.73,0,0,1-.94.37,8.45,8.45,0,0,0-3.51-.75,8.64,8.64,0,1,0,8.63,8.64V9.2A.72.72,0,0,1,20,9.2v.87A10.07,10.07,0,0,1,9.93,20.12Z"/><path class="cls-1" d="M9.9,12.7a.74.74,0,0,1-.51-.2L6.58,9.68a.72.72,0,0,1,1-1L9.9,11l8.88-8.89a.71.71,0,0,1,1,1l-9.38,9.39A.69.69,0,0,1,9.9,12.7Z"/></g></svg>