<svg xmlns="http://www.w3.org/2000/svg" viewBox="0 0 62 54"><title>icon-user</title><path d="M58.86,39.06,47.47,34.51a1,1,0,0,1-.62-.8l-.38-3A12,12,0,0,0,53,20V10.72a7,7,0,0,0-6.37-7L45.34,1.17a2.15,2.15,0,0,0-2.62-1l-7.4,2.64A9.42,9.42,0,0,0,31.13,6,15,15,0,0,1,36,17v1a23.22,23.22,0,0,0,3.43,11.94,4,4,0,0,1-1.36,5.49,4.92,4.92,0,0,1-.81.37c-.68.22-1.37.42-2.06.57L40,38.28a8,8,0,0,1,5,7.43V53a3.77,3.77,0,0,1-.14,1H61a1,1,0,0,0,1-1V43.71A5,5,0,0,0,58.86,39.06ZM41,54H1a1,1,0,0,1-1-1V45.71a5,5,0,0,1,3.14-4.65l11.39-4.55a1,1,0,0,0,.62-.81l.28-2.22A18.88,18.88,0,0,1,5.68,33a1,1,0,0,1-.63-1.27l.09-.2A26.2,26.2,0,0,0,9,18V17a12,12,0,0,1,24,0v1a26.2,26.2,0,0,0,3.86,13.48,1,1,0,0,1-.35,1.37l-.19.1a18.88,18.88,0,0,1-9.75.53l.28,2.22a1,1,0,0,0,.62.8l11.39,4.56A5,5,0,0,1,42,45.71V53A1,1,0,0,1,41,54Z" fill="#7a7b7a"/></svg>
