<?xml version="1.0" encoding="utf-8"?>
<!-- Generator: Adobe Illustrator 24.2.3, SVG Export Plug-In . SVG Version: 6.00 Build 0)  -->
<svg version="1.1" id="Layer_1" xmlns="http://www.w3.org/2000/svg" xmlns:xlink="http://www.w3.org/1999/xlink" x="0px" y="0px"
	 viewBox="0 0 20 20" style="enable-background:new 0 0 20 20;" xml:space="preserve">
<style type="text/css">
	.st0{fill:#333333;}
</style>
<g>
	<path class="st0" d="M17.8,11.9l-3.9-3.2H6.3l-3.9,3.2c-0.7,0.5-0.8,1.5-0.3,2.2l1.7,2.6L5,15.8l-1.7-2.6c0-0.1,0-0.1,0-0.2l2.5-2
		V20h1.5v-9.7h5.5V20h1.5v-8.9l2.5,2c0.1,0,0.1,0.1,0,0.2l-1.7,2.6l1.2,0.8l1.7-2.6C18.5,13.4,18.4,12.5,17.8,11.9z"/>
	<path class="st0" d="M10.1,6.8c1.8,0,3.3-1.5,3.3-3.4s-1.5-3.4-3.3-3.4c-1.8,0-3.3,1.5-3.3,3.4S8.2,6.8,10.1,6.8z M10.1,1.6
		c1,0,1.9,0.8,1.9,1.9s-0.8,1.9-1.9,1.9c-1,0-1.9-0.8-1.9-1.9S9.1,1.6,10.1,1.6z"/>
</g>
</svg>
