<svg width="19.999999999999996" height="19" xmlns="http://www.w3.org/2000/svg">
 <defs>
  <style>.cls-1{fill:#fff;}</style>
 </defs>
 <g>
  <title>background</title>
  <rect x="-1" y="-1" width="22" height="21" id="canvas_background" fill="none"/>
 </g>
 <g>
  <title>Layer 1</title>
  <g id="like">
   <g id="Group_1528">
    <g id="Group_1527">
     <path id="Path_652" class="cls-1" d="m2.29487,8.305a2,2 0 0 0 -2,2l0,6.48a2,2 0 0 0 2,2l2.44,0a2,2 0 0 0 1.21,-0.41l0,-10.07l-3.65,0z"/>
    </g>
   </g>
   <g id="Group_1530">
    <g id="Group_1529">
     <path id="Path_653" class="cls-1" d="m19.70487,11.345a1.76,1.76 0 0 0 -0.52,-1.28a2,2 0 0 0 0.51,-1.54a2.09,2.09 0 0 0 -2.11,-1.84l-5,0a11.52,11.52 0 0 0 0.65,-3.23a3.3,3.3 0 0 0 -2.42,-3.24a2.59,2.59 0 0 0 -1.47,0.49a0.41,0.41 0 0 0 -0.15,0.32l0,2.74l-2.34,5.05l-0.09,0.05l0,8.67a5.39,5.39 0 0 0 2,0.48l7.43,0a1.87,1.87 0 0 0 1.83,-1.42a1.74,1.74 0 0 0 -0.14,-1.21a1.81,1.81 0 0 0 0.81,-2.42a1.8,1.8 0 0 0 1.01,-1.62z"/>
    </g>
   </g>
  </g>
 </g>
</svg>
