<svg xmlns="http://www.w3.org/2000/svg" width="76.923" height="70.58" viewBox="0 0 76.923 70.58">
  <g id="Group_1963" data-name="Group 1963" transform="translate(-1159.95 -807.93)">
    <g id="Group_1958" data-name="Group 1958">
      <path id="Path_791" data-name="Path 791" d="M1185.4,828.34a13.179,13.179,0,0,0,1.15,5.29,12.266,12.266,0,0,1-19.01-10.3v-3.08a12.29,12.29,0,0,1,23.24-5.61,13.436,13.436,0,0,0-5.38,10.6Z" fill="#fff"/>
      <path id="Path_792" data-name="Path 792" d="M1177.99,853.53l-.1.18-.01.22c-.07,1.12-.07,1.4-.07,1.94v7.89h-13.78a4.1,4.1,0,0,1-4.08-4.08v-8.66c0-.63,0-.85.07-2.03a15.354,15.354,0,0,1,13.55-8.24h12.32a15.327,15.327,0,0,1,10.3,4h-3.76A16.3,16.3,0,0,0,1177.99,853.53Z" fill="#fff"/>
    </g>
    <g id="Group_1960" data-name="Group 1960">
      <path id="Path_793" data-name="Path 793" d="M1229.38,820.25v3.08a12.276,12.276,0,0,1-18.61,10.56,13.3,13.3,0,0,0,1.27-5.56v-3.09a13.445,13.445,0,0,0-5.76-10.88,12.294,12.294,0,0,1,23.1,5.89Z" fill="#fff"/>
      <path id="Path_794" data-name="Path 794" d="M1236.87,851.02v8.66a4.1,4.1,0,0,1-4.08,4.08h-7.55a8.4,8.4,0,0,0-5.71-6.56v-1.15a8.151,8.151,0,0,0-.25-2.31l-.08-.21a16.268,16.268,0,0,0-14.45-8.78h-4.27a15.351,15.351,0,0,1,10.29-4h12.32a15.309,15.309,0,0,1,13.56,8.24A7.272,7.272,0,0,1,1236.87,851.02Z" fill="#fff"/>
    </g>
    <g id="Group_1961" data-name="Group 1961">
      <g id="Path_190-3" data-name="Path 190-3">
        <path id="Path_795" data-name="Path 795" d="M1210.04,825.25v3.07a11.26,11.26,0,0,1-.92,4.38,11.26,11.26,0,0,1-20.94-.34,11.244,11.244,0,0,1-.78-4.03v-3.07a11.32,11.32,0,0,1,22.64-.01Z" fill="#fff"/>
      </g>
      <g id="Path_191-3" data-name="Path 191-3">
        <path id="Path_796" data-name="Path 796" d="M1217.53,856.02v.8c-.17-.01-.33-.02-.5-.02h-.05a8.476,8.476,0,0,0-8.19,6.96,10.427,10.427,0,0,0-.12,1.14v2.56c0,.11-.01.21-.01.3h-25.77a3.107,3.107,0,0,1-3.08-3.08v-8.81c0-.47,0-.73.05-1.61a14.329,14.329,0,0,1,12.57-7.51h12.32a14.264,14.264,0,0,1,12.62,7.6A6.49,6.49,0,0,1,1217.53,856.02Z" fill="#fff"/>
      </g>
    </g>
    <g id="bell">
      <g id="Path_786" data-name="Path 786">
        <g id="Group_1963-2" data-name="Group 1963">
          <path id="Path_797" data-name="Path 797" d="M1219.38,876.74a2.465,2.465,0,0,1-4.73,0c.75.05,1.54.08,2.36.08S1218.63,876.79,1219.38,876.74Z" fill="#fff"/>
        </g>
      </g>
      <g id="Path_787" data-name="Path 787">
        <g id="Group_1964" data-name="Group 1964">
          <path id="Path_798" data-name="Path 798" d="M1225.64,872.28c0,.97-1.56,1.8-4.23,2.23a28.132,28.132,0,0,1-4.4.31,28.518,28.518,0,0,1-4.45-.32c-2.63-.43-4.17-1.26-4.17-2.22,0-.98.91-1.54,1.59-2.52a4.047,4.047,0,0,0,.49-1,3.3,3.3,0,0,0,.18-1,1.463,1.463,0,0,0,.02-.3v-2.48a6.075,6.075,0,0,1,.17-1.22,6.431,6.431,0,0,1,6.17-4.96,4.4,4.4,0,0,1,.52.03,5.506,5.506,0,0,1,1,.18,4.917,4.917,0,0,1,1,.34,6.4,6.4,0,0,1,3.82,5.57v2.54C1223.35,870.24,1225.64,870.73,1225.64,872.28Z" fill="#fff"/>
        </g>
      </g>
    </g>
  </g>
</svg>
