<svg xmlns="http://www.w3.org/2000/svg" width="37" height="50" viewBox="0 0 37 50"><g><g><g><g><g><path fill="#7a7b7a" d="M15.363 14.626a12.258 12.258 0 0 1-.97-4.802 12.258 12.258 0 0 1 1.342-5.6 7.184 7.184 0 0 0-3.142-.72h-.333c-3.987 0-7.25 3.262-7.25 7.25V20.97h14.833v-.91a12.353 12.353 0 0 1-1.838-1.515 12.288 12.288 0 0 1-2.642-3.92z"/></g><g><path fill="#7a7b7a" d="M12.26 40.062h.333c3.987 0 7.25-3.262 7.25-7.25V22.595H5.01v10.217c0 3.988 3.263 7.25 7.25 7.25z"/></g><g><path fill="#7a7b7a" d="M21.41 20.954l.085 11.6v.027c.002.04.058 3.929-2.434 6.49-1.497 1.54-3.663 2.329-6.437 2.344h-.445c-2.672-.015-4.766-.783-6.224-2.28-2.494-2.564-2.438-6.515-2.437-6.55l.086-11.688a1.476 1.476 0 0 0-1.465-1.487h-.011c-.81 0-1.47.654-1.476 1.465L.567 32.522c-.008.398-.036 5.248 3.25 8.647 1.59 1.644 3.654 2.66 6.155 3.035v2.915H4.464a1.476 1.476 0 1 0 0 2.951h15.968a1.476 1.476 0 1 0 0-2.951h-5.063V44.12c2.357-.435 4.312-1.444 5.831-3.016 3.283-3.397 3.255-8.187 3.247-8.584l-.08-10.59a12.243 12.243 0 0 1-2.958-.977z"/></g></g></g><g><g><g><g><g><g><g><path fill="#7a7b7a" d="M30.517 11.006h-2.423v2.425a1.244 1.244 0 0 1-2.487.001v-2.426h-2.425a1.243 1.243 0 0 1 0-2.487h2.426V6.093a1.243 1.243 0 1 1 2.486 0v2.425h2.423a1.244 1.244 0 0 1 .001 2.487zM26.727 0c-5.427 0-9.825 4.398-9.825 9.824s4.398 9.825 9.824 9.825 9.824-4.399 9.824-9.825C36.54 4.404 32.147.012 26.726 0z"/></g></g></g></g></g></g></g></g></g></svg>