<svg xmlns="http://www.w3.org/2000/svg" width="339.586" height="339.586" viewBox="0 0 339.586 339.586">
  <path id="Path_340" data-name="Path 340" d="M183.543-96.25A168.4,168.4,0,0,0,63.562-46.438,168.768,168.768,0,0,0,13.75,73.543c0,93.559,76.234,169.793,169.793,169.793a168.768,168.768,0,0,0,119.981-49.812A168.768,168.768,0,0,0,353.336,73.543C353.336-20.017,277.1-96.25,183.543-96.25Zm96.591,266.384a135.429,135.429,0,0,1-96.591,39.849,136.056,136.056,0,1,1,96.591-39.849ZM166.217,21.565h34.652V-13.086H166.217Zm0,138.606h34.652V42.356H166.217Z" transform="translate(-13.75 96.25)" fill="#000000" opacity="1"/>
</svg>
