<svg xmlns="http://www.w3.org/2000/svg" viewBox="0 0 45.34 50"><title>icon-quiz</title><path d="M35.53,22.11a12.32,12.32,0,0,1-12.3-12.3A12,12,0,0,1,25,3.54H5.59A5.57,5.57,0,0,0,0,9.08V44.41A5.57,5.57,0,0,0,5.54,50H35.47a5.58,5.58,0,0,0,5.59-5.54V20.81A12.62,12.62,0,0,1,35.53,22.11ZM7,15.53H18.51a1.24,1.24,0,0,1,0,2.48H7a1.24,1.24,0,1,1,0-2.48Zm22.17,24.1H7a1.25,1.25,0,0,1,0-2.49H29.07a1.25,1.25,0,0,1,1.24,1.25,1.2,1.2,0,0,1-1.15,1.24Zm5.4-10.81H7a1.24,1.24,0,0,1,0-2.48H34.47a1.23,1.23,0,0,1,1.24,1.24,1.19,1.19,0,0,1-1.14,1.24ZM35.53,0a9.82,9.82,0,1,0,9.81,9.81A9.82,9.82,0,0,0,35.53,0Zm3.78,11H36.89v2.43a1.24,1.24,0,1,1-2.48,0V11H32a1.24,1.24,0,1,1,0-2.48h2.42V6.09a1.25,1.25,0,1,1,2.49,0h0V8.51h2.41a1.24,1.24,0,1,1,0,2.48Z" fill="#fff"/></svg>