<svg xmlns="http://www.w3.org/2000/svg" width="36" height="50" viewBox="0 0 36 50"><g><g><g><g><g><path fill="#fff" d="M14.797 14.625a12.258 12.258 0 0 1-.97-4.8 12.258 12.258 0 0 1 1.341-5.6 7.184 7.184 0 0 0-3.142-.722h-.333c-3.987 0-7.25 3.263-7.25 7.25V20.97h14.833v-.91a12.353 12.353 0 0 1-1.837-1.515 12.288 12.288 0 0 1-2.642-3.92z"/></g><g><path fill="#fff" d="M11.693 40.062h.333c3.987 0 7.25-3.262 7.25-7.25V22.595H4.443v10.217c0 3.988 3.263 7.25 7.25 7.25z"/></g><g><path fill="#fff" d="M20.842 20.954l.087 11.6v.027c0 .04.057 3.929-2.435 6.49-1.497 1.54-3.663 2.328-6.437 2.344h-.444c-2.673-.015-4.767-.783-6.225-2.28-2.494-2.564-2.438-6.515-2.437-6.55l.086-11.689a1.476 1.476 0 0 0-1.465-1.486H1.56c-.81 0-1.47.654-1.476 1.465L0 32.52c-.008.398-.036 5.249 3.25 8.648 1.59 1.644 3.654 2.66 6.155 3.034v2.915H3.897a1.476 1.476 0 1 0 0 2.952h15.968a1.476 1.476 0 1 0 0-2.952h-5.063V44.12c2.357-.434 4.312-1.443 5.831-3.015 3.283-3.397 3.255-8.187 3.247-8.584l-.08-10.59a12.243 12.243 0 0 1-2.958-.977z"/></g></g></g><g><g><g><g><g><g><g><path fill="#fff" d="M29.95 11.006h-2.422v2.425a1.244 1.244 0 0 1-2.487.001v-2.426h-2.426a1.243 1.243 0 0 1 0-2.487h2.426V6.093a1.243 1.243 0 1 1 2.487-.001v2.426h2.422a1.244 1.244 0 0 1 .001 2.487zM26.16 0c-5.427 0-9.825 4.398-9.825 9.824s4.398 9.824 9.824 9.824 9.824-4.398 9.824-9.824C35.972 4.404 31.58.011 26.16 0z"/></g></g></g></g></g></g></g></g></g></svg>