<?xml version="1.0" encoding="utf-8"?>
<!-- Generator: Adobe Illustrator 24.2.3, SVG Export Plug-In . SVG Version: 6.00 Build 0)  -->
<svg version="1.1" id="Layer_1" xmlns="http://www.w3.org/2000/svg" xmlns:xlink="http://www.w3.org/1999/xlink" x="0px" y="0px"
	 viewBox="0 0 20 20" style="enable-background:new 0 0 20 20;" xml:space="preserve">
<style type="text/css">
	.st0{fill:#333333;}
</style>
<path class="st0" d="M17.6,19.3C17.5,19.3,17.5,19.3,17.6,19.3c-1.8-0.1-4.5-1.7-6.3-3.5c-0.4,0.1-0.9,0.1-1.3,0.1
	c-4.7,0-8.6-3.4-8.6-7.5c0-4.1,3.8-7.5,8.6-7.5c4.7,0,8.6,3.4,8.6,7.5c0,2.1-1,4.1-2.8,5.6c0.4,1.4,1.3,2.8,2.4,4.1
	c0.2,0.2,0.2,0.6,0.1,0.8C18.1,19.1,17.8,19.3,17.6,19.3z M11.6,14.2c0.2,0,0.4,0.1,0.6,0.3c0.9,1,2.2,2,3.5,2.7
	c-0.7-1.1-1.2-2.2-1.5-3.3c-0.1-0.3,0-0.6,0.3-0.8c1.7-1.1,2.6-2.8,2.6-4.7c0-3.3-3.2-6-7.1-6c-3.9,0-7.1,2.7-7.1,6
	c0,3.3,3.2,6,7.1,6c0.5,0,1,0,1.4-0.1C11.5,14.2,11.5,14.2,11.6,14.2z"/>
</svg>
