<?xml version="1.0" encoding="utf-8"?>
<!-- Generator: Adobe Illustrator 21.0.2, SVG Export Plug-In . SVG Version: 6.00 Build 0)  -->
<svg version="1.1" id="Layer_1" xmlns="http://www.w3.org/2000/svg" xmlns:xlink="http://www.w3.org/1999/xlink" x="0px" y="0px"
	 viewBox="0 0 16.9 14" style="enable-background:new 0 0 16.9 14;" xml:space="preserve">
<style type="text/css">
	.st0{fill:#FFFFFF;}
</style>
<title>performance issues</title>
<desc>Created with Sketch.</desc>
<g id="Symbols">
	<g id="performance_icons-copy-2" transform="translate(-73.000000, 0.000000)">
		<g id="status-icons">
			<path id="performance-issues" class="st0" d="M89.5,13.1L82,0.3C81.9,0.1,81.7,0,81.5,0c-0.2,0-0.4,0.1-0.5,0.3L73.5,13
				c-0.1,0.2-0.2,0.5-0.1,0.7s0.3,0.3,0.5,0.3h15.2c0.2,0,0.4-0.1,0.5-0.3C89.7,13.5,89.6,13.2,89.5,13.1L89.5,13.1z M82.6,12.2
				h-2.3v-1.8h2.3V12.2L82.6,12.2z M82.6,9.3h-2.3V4.1h2.3V9.3L82.6,9.3z"/>
		</g>
	</g>
</g>
</svg>
