<?xml version="1.0" encoding="UTF-8"?>
<svg width="20px" height="20px" viewBox="0 0 20 20" version="1.1" xmlns="http://www.w3.org/2000/svg" xmlns:xlink="http://www.w3.org/1999/xlink">
    <title>icon_unraise_hand_2</title>
    <g id="v8" stroke="none" stroke-width="1" fill="none" fill-rule="evenodd">
        <g id="D01-conference-moderation-in-call-v1" transform="translate(-481.000000, -294.000000)" fill="#4A4A4A">
            <g id="conference-moderation" transform="translate(24.000000, 8.000000)">
                <g id="right-panel" transform="translate(188.000000, 51.000000)">
                    <g id="participants" transform="translate(8.000000, 113.004328)">
                        <g id="03" transform="translate(0.000000, 121.995672)">
                            <g id="icon_unraise_hand-copy-2" transform="translate(261.000000, 0.000000)">
                                <path d="M2.85714286,1.75042089 L9.87366667,8.69666667 L14.8215475,13.5929274 L14.8206667,13.5936667 L18.3333333,17.0710678 L17.1428571,18.2495791 L14.1764209,15.3123959 C14.1760112,15.4604883 14.1756485,15.6085995 14.1753274,15.7547782 L14.1745895,16.1254517 L14.174283,16.30528 L14.174283,16.30528 L14.1735829,16.8116465 L14.1728483,17.8969697 C14.1728483,18.1113632 14.0170736,18.2893938 13.8113398,18.3263094 L13.7320545,18.3333333 L8.0017346,18.3333333 C7.78511219,18.3333333 7.60531474,18.1791242 7.5680341,17.9754582 L7.56094077,17.8969697 L7.56094077,15.7593697 C6.0333587,15.0989491 5.03167297,13.6292654 4.95085121,11.9754903 L4.945564,11.7587879 L4.945564,8.48606061 C4.945564,8.12454788 5.21218549,7.83151515 5.5773685,7.83151515 C5.90932633,7.83151515 6.18416311,8.07369096 6.23138998,8.38933279 L6.23855925,8.48606061 L6.23855925,10.449697 C6.23855925,10.6906279 6.43591735,10.8860606 6.67935309,10.8860606 C6.89568818,10.8860606 7.0757091,10.7316446 7.11304295,10.5281165 L7.12014693,10.449697 L7.11966667,8.32666667 L1.66666667,2.92893219 L2.85714286,1.75042089 Z M12.1892761,2.53939394 C12.5212339,2.53939394 12.7960707,2.78156975 12.8432975,3.09721157 L12.8504668,3.19393939 L12.8504668,8.26787879 C12.8504668,8.5088097 13.0478249,8.70424242 13.2912607,8.70424242 C13.5075957,8.70424242 13.6876167,8.54982644 13.7249505,8.3462983 L13.7320545,8.26787879 L13.7320545,4.06666667 C13.7320545,3.70515394 14.0280622,3.41212121 14.3932452,3.41212121 C14.7252031,3.41212121 15.0000399,3.65429702 15.0472667,3.96993885 L15.054436,4.06666667 L15.053564,11.4666667 L11.527564,7.97666667 L11.5280853,3.19393939 C11.5280853,2.86529146 11.7727198,2.59323857 12.0915662,2.5464905 L12.1892761,2.53939394 Z M9.98530687,1.66666667 C10.3172647,1.66666667 10.5921015,1.90884247 10.6393284,2.2244843 L10.6464976,2.32121212 L10.645564,7.10266667 L9.323564,5.79466667 L9.32411612,2.32121212 C9.32411612,1.99256419 9.56875062,1.72051129 9.88759702,1.67376323 L9.98530687,1.66666667 Z M7.78133768,2.53939394 C8.11329552,2.53939394 8.3881323,2.78156975 8.43535917,3.09721157 L8.44252844,3.19393939 L8.441564,4.92166667 L7.119564,3.61266667 L7.12014693,3.19393939 C7.12014693,2.86529146 7.36478144,2.59323857 7.68362783,2.5464905 L7.78133768,2.53939394 Z" id="Combined-Shape"></path>
                            </g>
                        </g>
                    </g>
                </g>
            </g>
        </g>
    </g>
</svg>